HIERARCHY
ROOT joint_0
{
	OFFSET 0.000000 0.000000 0.000000
	CHANNELS 6 Xposition Yposition Zposition Zrotation Yrotation Xrotation 
	JOINT joint_1
	{
		OFFSET 4.520508 -1.939880 86.268921
		CHANNELS 3 Zrotation Yrotation Xrotation
		JOINT joint_2
		{
			OFFSET -4.459717 -0.438538 78.934082
			CHANNELS 3 Zrotation Yrotation Xrotation
			JOINT joint_3
			{
				OFFSET -5.197754 -0.781128 78.796997
				CHANNELS 3 Zrotation Yrotation Xrotation
				JOINT joint_4
				{
					OFFSET 2.952026 -3.710571 109.812988
					CHANNELS 3 Zrotation Yrotation Xrotation
					JOINT joint_5
					{
						OFFSET 24.716797 -5.488037 87.903931
						CHANNELS 3 Zrotation Yrotation Xrotation
						End Site
						{
							OFFSET 0.000000 0.000000 0.000000
						}
					}
				}
				JOINT joint_6
				{
					OFFSET -3.154419 -25.484680 60.934937
					CHANNELS 3 Zrotation Yrotation Xrotation
					JOINT joint_7
					{
						OFFSET -28.997192 -144.472229 -32.671997
						CHANNELS 3 Zrotation Yrotation Xrotation
						JOINT joint_8
						{
							OFFSET 19.867676 -18.614380 -249.897949
							CHANNELS 3 Zrotation Yrotation Xrotation
							JOINT joint_9
							{
								OFFSET 5.281982 -13.816650 -264.993042
								CHANNELS 3 Zrotation Yrotation Xrotation
								End Site
								{
									OFFSET 0.000000 0.000000 0.000000
								}
							}
						}
					}
				}
				JOINT joint_10
				{
					OFFSET 6.494995 21.336792 62.257935
					CHANNELS 3 Zrotation Yrotation Xrotation
					JOINT joint_11
					{
						OFFSET 31.106567 145.200745 -27.007935
						CHANNELS 3 Zrotation Yrotation Xrotation
						JOINT joint_12
						{
							OFFSET 29.119141 24.684326 -248.460083
							CHANNELS 3 Zrotation Yrotation Xrotation
							JOINT joint_13
							{
								OFFSET 21.220093 31.248413 -262.703979
								CHANNELS 3 Zrotation Yrotation Xrotation
								End Site
								{
									OFFSET 0.000000 0.000000 0.000000
								}
							}
						}
					}
				}
			}
		}
	}
	JOINT joint_14
	{
		OFFSET -15.458496 -88.861694 -109.593018
		CHANNELS 3 Zrotation Yrotation Xrotation
		JOINT joint_15
		{
			OFFSET -6.193359 6.837952 -506.710999
			CHANNELS 3 Zrotation Yrotation Xrotation
			JOINT joint_16
			{
				OFFSET -35.096680 13.289795 -435.677025
				CHANNELS 3 Zrotation Yrotation Xrotation
				JOINT joint_17
				{
					OFFSET 158.491211 -33.916565 -71.771002
					CHANNELS 3 Zrotation Yrotation Xrotation
					End Site
					{
						OFFSET 0.000000 0.000000 0.000000
					}
				}
			}
		}
	}
	JOINT joint_18
	{
		OFFSET 23.116943 86.574158 -110.082031
		CHANNELS 3 Zrotation Yrotation Xrotation
		JOINT joint_19
		{
			OFFSET -6.125854 -0.283569 -506.757019
			CHANNELS 3 Zrotation Yrotation Xrotation
			JOINT joint_20
			{
				OFFSET -63.240234 11.589966 -432.537994
				CHANNELS 3 Zrotation Yrotation Xrotation
				JOINT joint_21
				{
					OFFSET 156.074219 -41.487305 -73.077999
					CHANNELS 3 Zrotation Yrotation Xrotation
					End Site
					{
						OFFSET 0.000000 0.000000 0.000000
					}
				}
			}
		}
	}
}
MOTION
Frames: 6
Frame Time: 0.016667
-1283.086426 926.412781 1141.464966 7.612766 -0.616725 0.046307 -0.272347 0.500330 -1.430287 -0.172432 -0.112702 0.330052 -0.204487 0.092749 -0.193433 -0.411895 1.289221 1.721972 0.000000 0.000000 0.000000 -0.039755 0.414877 -0.088231 0.140129 0.160207 0.982570 -0.064464 0.703363 -1.076505 0.000000 0.000000 0.000000 0.314349 0.302683 0.169465 -0.002204 0.252155 0.131270 0.149111 0.374155 1.302343 0.000000 0.000000 0.000000 -0.237679 -0.142315 -0.893965 -0.218374 2.142517 0.252649 -0.246162 -0.407273 -0.198710 0.000000 0.000000 0.000000 0.630153 0.720863 0.264940 0.640393 -1.167001 -0.350781 0.571519 1.241936 0.598065 0.000000 0.000000 0.000000 
-1282.926880 926.438721 1141.462036 7.559215 -0.606803 0.041219 -0.270018 0.503629 -1.426145 -0.170419 -0.111790 0.329688 -0.202542 0.091027 -0.194344 -0.410797 1.293290 1.719078 0.000000 0.000000 0.000000 -0.039713 0.420904 -0.087635 0.138766 0.168466 0.973475 -0.064501 0.706043 -1.073824 0.000000 0.000000 0.000000 0.317019 0.295792 0.176674 -0.000053 0.241450 0.155743 0.149297 0.379060 1.297121 0.000000 0.000000 0.000000 -0.220107 -0.146412 -0.888042 -0.200718 2.137602 0.248459 -0.229441 -0.407061 -0.191091 0.000000 0.000000 0.000000 0.646932 0.714170 0.262825 0.656892 -1.143955 -0.334572 0.588703 1.214042 0.598698 0.000000 0.000000 0.000000 
-1282.772217 926.450256 1141.458984 7.508395 -0.599522 0.035645 -0.266965 0.512624 -1.423459 -0.167644 -0.114359 0.329246 -0.199642 0.093294 -0.193507 -0.410512 1.293547 1.718226 0.000000 0.000000 0.000000 -0.040568 0.424501 -0.084557 0.137382 0.175232 0.961211 -0.065060 0.717258 -1.071320 0.000000 0.000000 0.000000 0.317245 0.285603 0.182852 0.002013 0.227237 0.182215 0.149071 0.381591 1.290289 0.000000 0.000000 0.000000 -0.203446 -0.148655 -0.880477 -0.183957 2.134637 0.243878 -0.213658 -0.407761 -0.184091 0.000000 0.000000 0.000000 0.662933 0.712771 0.265270 0.672781 -1.127566 -0.324943 0.604585 1.191115 0.600043 0.000000 0.000000 0.000000 
-1282.629395 926.441956 1141.453003 7.461678 -0.595823 0.028999 -0.262068 0.529329 -1.420911 -0.163060 -0.116708 0.328665 -0.194965 0.095120 -0.193186 -0.411547 1.289507 1.721064 0.000000 0.000000 0.000000 -0.046481 0.425166 -0.075783 0.135862 0.180117 0.943886 -0.066233 0.738662 -1.068664 0.000000 0.000000 0.000000 0.312497 0.270970 0.189690 0.004021 0.209170 0.210869 0.148325 0.381573 1.280739 0.000000 0.000000 0.000000 -0.188425 -0.148457 -0.870010 -0.168809 2.133902 0.238251 -0.199562 -0.409364 -0.178049 0.000000 0.000000 0.000000 0.677375 0.719146 0.274969 0.687370 -1.122193 -0.325291 0.618166 1.175749 0.602321 0.000000 0.000000 0.000000 
-1282.490601 926.421326 1141.446045 7.417541 -0.594790 0.021656 -0.256883 0.551531 -1.418526 -0.158239 -0.121733 0.327766 -0.189931 0.099526 -0.192133 -0.413132 1.281149 1.724931 0.000000 0.000000 0.000000 -0.051613 0.423825 -0.064835 0.134352 0.184127 0.923982 -0.067903 0.767934 -1.066783 0.000000 0.000000 0.000000 0.307999 0.253303 0.196099 0.005883 0.187612 0.240889 0.147206 0.379560 1.269477 0.000000 0.000000 0.000000 -0.174129 -0.146496 -0.857969 -0.154367 2.135468 0.232411 -0.186212 -0.411577 -0.172475 0.000000 0.000000 0.000000 0.691060 0.731005 0.289163 0.701365 -1.123662 -0.331823 0.630516 1.165183 0.605300 0.000000 0.000000 0.000000 
-1282.337158 926.389648 1141.439941 7.374783 -0.594481 0.015844 -0.251528 0.569711 -1.421183 -0.152855 -0.125981 0.327722 -0.184414 0.103324 -0.191271 -0.415627 1.276740 1.732764 0.000000 0.000000 0.000000 -0.058001 0.424828 -0.052388 0.132760 0.190220 0.905559 -0.069554 0.797181 -1.064047 0.000000 0.000000 0.000000 0.302216 0.236924 0.202211 0.007750 0.167635 0.270359 0.146647 0.380110 1.261463 0.000000 0.000000 0.000000 -0.160376 -0.142661 -0.847049 -0.140518 2.136628 0.227016 -0.173394 -0.414230 -0.167237 0.000000 0.000000 0.000000 0.704320 0.749254 0.304914 0.715057 -1.135528 -0.343567 0.642167 1.158481 0.608978 0.000000 0.000000 0.000000 
